<svg width="24" height="17" viewBox="0 0 24 17" fill="none" xmlns="http://www.w3.org/2000/svg">
<path d="M21.4257 1.45402L15.2438 5.10603C14.5932 5.4904 14.3715 6.33954 14.7487 7.00262L14.779 7.05589C15.1561 7.71898 15.9893 7.94492 16.64 7.56054L22.8219 3.90853C23.4725 3.52415 23.6942 2.67502 23.317 2.01194L23.2867 1.95866C22.9096 1.29558 22.0764 1.06964 21.4257 1.45402Z" fill="white"/>
<path d="M5.68861 9.15964C5.19517 9.58498 5.00048 10.032 4.76103 10.6147C4.74238 10.6603 4.71254 10.6956 4.67151 10.7207L2.87564 11.7926C2.86432 11.7995 2.85143 11.8033 2.83823 11.8035C2.82503 11.8037 2.81199 11.8003 2.80037 11.7938C2.78874 11.7872 2.77895 11.7777 2.77194 11.7661C2.76494 11.7545 2.76096 11.7412 2.76039 11.7276C2.71191 10.1525 3.2158 8.85138 4.27206 7.82434C4.51748 7.58564 5.13997 7.17208 6.13954 6.58368C8.46765 5.21379 10.7823 3.8534 13.0836 2.50252C13.74 2.11709 14.2536 1.86927 14.6243 1.75904C15.976 1.35879 17.4272 1.61992 18.6312 2.43296C18.6389 2.43798 18.6452 2.44498 18.6495 2.45325C18.6537 2.46152 18.6558 2.47079 18.6555 2.48012C18.6551 2.48945 18.6524 2.49854 18.6475 2.50647C18.6427 2.51439 18.6359 2.5209 18.6278 2.52532C18.0848 2.82865 17.513 3.16238 16.9125 3.52652C16.8107 3.58809 16.6597 3.6337 16.5433 3.6052C15.8354 3.43111 15.1215 3.55578 14.4017 3.97922C11.817 5.50039 9.26581 7.00218 6.74823 8.48458C6.16565 8.82743 5.81244 9.05245 5.68861 9.15964Z" fill="white"/>
<path d="M8.78805 16.0688C7.37485 16.4622 5.85312 16.1794 4.66034 15.2752C4.65416 15.2703 4.64925 15.264 4.64605 15.2568C4.64286 15.2496 4.64147 15.2416 4.64203 15.2337C4.64258 15.2258 4.64506 15.2182 4.64923 15.2115C4.6534 15.2048 4.65915 15.1992 4.66594 15.1953L6.36334 14.201C6.41038 14.1732 6.46236 14.1554 6.51618 14.1485C6.57001 14.1417 6.62458 14.1459 6.67664 14.1611C7.53262 14.4063 8.30132 14.2922 9.04876 13.8498C11.7909 12.226 14.5218 10.6181 17.2415 9.02627C18.0412 8.55799 18.5335 7.89661 18.7185 7.04214C18.7371 6.95699 18.7853 6.89123 18.8628 6.84486C19.4312 6.50809 19.9914 6.17474 20.5435 5.84481C20.5558 5.83745 20.5698 5.8334 20.5842 5.83304C20.5985 5.83267 20.6127 5.83599 20.6254 5.8427C20.6381 5.84942 20.649 5.8593 20.6569 5.87143C20.6649 5.88356 20.6698 5.89754 20.671 5.91209C20.7948 7.57086 20.2872 8.93923 19.1482 10.0172C18.849 10.3008 18.3448 10.6486 17.6354 11.0606C15.1775 12.4852 12.7177 13.9315 10.2561 15.3995C9.71079 15.7248 9.22145 15.948 8.78805 16.0688Z" fill="white"/>
<path d="M1.52843 13.8727C1.2763 13.7351 0.937267 13.7229 0.51133 13.8362C0.493427 13.8408 0.479254 13.8358 0.468811 13.8214C0.466573 13.8183 0.4662 13.8145 0.467692 13.81C0.46993 13.8016 0.475152 13.7952 0.483357 13.7906C2.5004 12.6031 4.46411 11.4465 6.37448 10.3206C7.41061 9.71056 8.70632 10.5418 8.47358 11.7905C8.34714 12.469 7.93762 12.6788 7.29871 13.0551C5.63972 14.0312 3.98521 15.0043 2.33517 15.9743C2.27848 16.0077 2.26132 15.9933 2.2837 15.9309C2.61117 15.0141 2.35942 14.3281 1.52843 13.8727Z" fill="white"/>
<path d="M0.957798 16.2308C1.48677 16.2308 1.9156 15.7938 1.9156 15.2547C1.9156 14.7156 1.48677 14.2786 0.957798 14.2786C0.42882 14.2786 0 14.7156 0 15.2547C0 15.7938 0.42882 16.2308 0.957798 16.2308Z" fill="white"/>
</svg>
