<svg width="17" height="20" viewBox="0 0 17 20" fill="none" xmlns="http://www.w3.org/2000/svg">
<path d="M10.6068 13.1849H10.6149M6.06494 13.1849H6.0731" stroke="#2D2D2D" stroke-width="2" stroke-linecap="round" stroke-linejoin="round"/>
<path d="M1.30364 16.2286C1.50829 17.7485 2.76722 18.9393 4.29923 19.0097C5.58835 19.069 6.89786 19.0999 8.33994 19.0999C9.78201 19.0999 11.0915 19.069 12.3807 19.0097C13.9127 18.9393 15.1716 17.7485 15.3762 16.2286C15.5098 15.2367 15.6199 14.2201 15.6199 13.1849C15.6199 12.1497 15.5098 11.1331 15.3762 10.1412C15.1716 8.62127 13.9127 7.4305 12.3807 7.36007C11.0915 7.30081 9.78201 7.2699 8.33994 7.2699C6.89786 7.2699 5.58835 7.30081 4.29923 7.36007C2.76722 7.4305 1.50829 8.62127 1.30364 10.1412C1.17009 11.1331 1.05994 12.1497 1.05994 13.1849C1.05994 14.2201 1.17009 15.2367 1.30364 16.2286Z" stroke="#141B34" stroke-width="1.5"/>
<path d="M4.245 7.2699V4.9949C4.245 2.7333 6.07839 0.899902 8.34 0.899902C10.6016 0.899902 12.435 2.7333 12.435 4.9949V7.2699" stroke="#141B34" stroke-width="1.5" stroke-linecap="round" stroke-linejoin="round"/>
</svg>
