<svg width="21" height="20" viewBox="0 0 21 20" fill="none" xmlns="http://www.w3.org/2000/svg">
<path d="M2.85751 9.94745C1.9948 8.44317 1.57825 7.21483 1.32708 5.96971C0.955605 4.1282 1.80572 2.32934 3.21401 1.18152C3.80921 0.696411 4.49151 0.862154 4.84347 1.49359L5.63807 2.91911C6.26788 4.04902 6.58279 4.61397 6.52033 5.21293C6.45787 5.81189 6.03318 6.29972 5.18379 7.27537L2.85751 9.94745ZM2.85751 9.94745C4.60369 12.9922 7.344 15.7341 10.3923 17.4823M10.3923 17.4823C11.8966 18.345 13.1249 18.7615 14.3701 19.0127C16.2116 19.3842 18.0104 18.5341 19.1583 17.1258C19.6434 16.5306 19.4776 15.8483 18.8462 15.4963L17.4207 14.7017C16.2908 14.0719 15.7258 13.757 15.1268 13.8194C14.5279 13.8819 14.0401 14.3066 13.0644 15.156L10.3923 17.4823Z" stroke="#2D2D2D" stroke-width="1.5" stroke-linejoin="round"/>
</svg>
